HIERARCHY
ROOT joint_Root
{
	OFFSET 0.0 0.0 0.0
	CHANNELS 6 Xposition Yposition Zposition Zrotation Xrotation Yrotation 
	JOINT Hips
	{
		OFFSET 4.5925 91.4895 -427.239
		CHANNELS 6 Xposition Yposition Zposition Zrotation Xrotation Yrotation 
		JOINT Spine
		{
			OFFSET 15.7357 0.0 0.0
			CHANNELS 6 Xposition Yposition Zposition Zrotation Xrotation Yrotation 
			JOINT Chest
			{
				OFFSET 8.98455 -0.406207 0.0
				CHANNELS 6 Xposition Yposition Zposition Zrotation Xrotation Yrotation 
				JOINT Neck
				{
					OFFSET 16.3773 0.0 0.0
					CHANNELS 6 Xposition Yposition Zposition Zrotation Xrotation Yrotation 
					JOINT Head
					{
						OFFSET 6.45672 0.0 0.0
						CHANNELS 6 Xposition Yposition Zposition Zrotation Xrotation Yrotation 
						End Site
						{
							OFFSET 0.0 0.0 0.0
						}
					}
				}
				JOINT Shoulder_L
				{
					OFFSET 12.9942 -0.242716 4.98039
					CHANNELS 6 Xposition Yposition Zposition Zrotation Xrotation Yrotation 
					JOINT UpperArm_L
					{
						OFFSET 5.34809 0.0 0.0
						CHANNELS 6 Xposition Yposition Zposition Zrotation Xrotation Yrotation 
						JOINT LowerArm_L
						{
							OFFSET 24.3286 1.87007e-05 0.0
							CHANNELS 6 Xposition Yposition Zposition Zrotation Xrotation Yrotation 
							JOINT Hand_L
							{
								OFFSET 22.2916 0.0 0.0
								CHANNELS 6 Xposition Yposition Zposition Zrotation Xrotation Yrotation 
								End Site
								{
									OFFSET 0.0 0.0 0.0
								}
							}
						}
					}
				}
				JOINT Shoulder_R
				{
					OFFSET 12.9945 -0.242716 -4.98039
					CHANNELS 6 Xposition Yposition Zposition Zrotation Xrotation Yrotation 
					JOINT UpperArm_R
					{
						OFFSET -5.34813 0.0 0.0
						CHANNELS 6 Xposition Yposition Zposition Zrotation Xrotation Yrotation 
						JOINT LowerArm_R
						{
							OFFSET -24.3289 0.000322201 0.0
							CHANNELS 6 Xposition Yposition Zposition Zrotation Xrotation Yrotation 
							JOINT Hand_R
							{
								OFFSET -22.2915 -0.000108084 0.0
								CHANNELS 6 Xposition Yposition Zposition Zrotation Xrotation Yrotation 
								End Site
								{
									OFFSET 0.0 0.0 0.0
								}
							}
						}
					}
				}
			}
		}
		JOINT UpperLeg_L
		{
			OFFSET -2.19248 -6.46944 0.0
			CHANNELS 6 Xposition Yposition Zposition Zrotation Xrotation Yrotation 
			JOINT LowerLeg_L
			{
				OFFSET 39.0811 0.0 -1.23785e-05
				CHANNELS 6 Xposition Yposition Zposition Zrotation Xrotation Yrotation 
				JOINT Foot_L
				{
					OFFSET 40.9854 0.0 -1.26872e-05
					CHANNELS 6 Xposition Yposition Zposition Zrotation Xrotation Yrotation 
					JOINT Toes_L
					{
						OFFSET 11.7543 0.0 0.0
						CHANNELS 6 Xposition Yposition Zposition Zrotation Xrotation Yrotation 
						End Site
						{
							OFFSET 0.0 0.0 0.0
						}
					}
				}
			}
		}
		JOINT UpperLeg_R
		{
			OFFSET -2.19251 6.46944 0.0
			CHANNELS 6 Xposition Yposition Zposition Zrotation Xrotation Yrotation 
			JOINT LowerLeg_R
			{
				OFFSET -39.0811 -0.00228153 -0.0401928
				CHANNELS 6 Xposition Yposition Zposition Zrotation Xrotation Yrotation 
				JOINT Foot_R
				{
					OFFSET -40.9854 0.0 0.0
					CHANNELS 6 Xposition Yposition Zposition Zrotation Xrotation Yrotation 
					JOINT Toes_R
					{
						OFFSET -11.7543 0.0 0.0
						CHANNELS 6 Xposition Yposition Zposition Zrotation Xrotation Yrotation 
						End Site
						{
							OFFSET 0.0 0.0 0.0
						}
					}
				}
			}
		}
	}
}
MOTION
Frames:	4
Frame Time:	0.0333333
0.000000 0.000000 0.000000 0.000000 0.000000 -0.000000 0.171686 87.974500 -61.309700 91.116000 -5.685870 4.381340 15.735700 0.000005 -0.000001 93.074300 78.631600 -94.348400 8.984550 -0.406207 -0.000000 14.954200 1.123840 -2.697510 16.377300 -0.000001 -0.000001 7.626170 -2.965640 1.557180 6.456720 -0.000001 -0.000000 -4.567250 -3.292870 0.572487 12.994200 -0.242716 4.980390 -91.446400 4.861230 -73.408600 5.348090 -0.000007 -0.000001 -70.105100 22.761800 -7.448420 24.328600 0.000019 0.000005 9.864700 28.742200 -19.881300 22.291600 -0.000001 0.000005 10.869200 5.154920 3.825050 12.994500 -0.242716 -4.980390 88.503700 9.150510 -80.671900 -5.348130 -0.000001 -0.000004 -53.552700 27.088100 -26.792600 -24.328900 0.000322 -0.000009 3.706510 4.992900 -36.670100 -22.291500 -0.000108 -0.000004 18.904200 5.423340 -3.711490 -2.192480 -6.469440 -0.000000 178.860000 -7.276070 -25.569700 39.081100 -0.000007 -0.000012 -0.154614 0.180680 40.555200 40.985400 -0.000006 -0.000013 1.161730 -1.631760 -61.136500 11.754300 -0.000000 0.000003 -0.000091 -0.000948 -16.614000 -2.192510 6.469440 -0.000001 172.804000 10.939800 176.239000 -39.081100 -0.002282 -0.040193 0.065621 -0.053958 49.136100 -40.985400 0.000008 0.000006 6.838120 -0.262371 -71.764900 -11.754300 -0.000006 -0.000006 -0.058698 -0.327519 -30.094100
0.000000 0.000000 0.000000 0.000000 0.000000 -0.000000 0.793194 87.718900 -58.235500 91.290000 -6.221430 5.478830 15.735700 0.000005 -0.000001 93.633900 78.416400 -94.991800 8.984550 -0.406207 -0.000000 15.375500 1.358350 -2.901690 16.377300 -0.000001 -0.000001 7.622250 -2.919110 1.298170 6.456720 -0.000001 -0.000000 -4.494140 -3.223460 0.295396 12.994200 -0.242716 4.980390 -91.388900 4.649710 -73.348600 5.348090 -0.000007 -0.000001 -69.939100 22.369200 -9.110310 24.328600 0.000019 0.000005 9.739660 29.012900 -19.489000 22.291600 -0.000001 0.000005 11.239500 5.130630 4.402240 12.994500 -0.242716 -4.980390 88.536200 9.006180 -80.729000 -5.348130 -0.000001 -0.000004 -55.092800 26.765700 -24.953300 -24.328900 0.000322 -0.000009 3.218200 4.388080 -36.320000 -22.291500 -0.000108 -0.000004 19.011300 5.428930 -3.902480 -2.192480 -6.469440 -0.000000 178.453000 -8.514990 -23.515300 39.081100 -0.000007 -0.000012 -0.192253 0.204847 43.184100 40.985400 -0.000006 -0.000013 1.692890 -1.244540 -64.810900 11.754300 -0.000000 0.000003 -0.000143 -0.001392 -16.630500 -2.192510 6.469440 -0.000001 172.610000 8.712940 172.042000 -39.081100 -0.002282 -0.040193 0.107208 -0.062488 59.001300 -40.985400 0.000008 0.000006 7.775250 -2.286960 -63.610900 -11.754300 -0.000006 -0.000006 -0.072689 -0.370973 -31.944900
0.000000 0.000000 0.000000 0.000000 0.000000 -0.000000 1.231570 87.522800 -55.419400 91.301200 -6.521880 6.169590 15.735700 0.000005 -0.000001 93.483000 78.373100 -94.868500 8.984550 -0.406207 -0.000000 15.465200 1.300380 -2.950050 16.377300 -0.000001 -0.000001 7.607670 -2.752430 0.979091 6.456720 -0.000001 -0.000000 -4.241580 -2.952420 0.126097 12.994200 -0.242716 4.980390 -91.318500 4.406570 -73.323600 5.348090 -0.000007 -0.000001 -69.557700 21.756700 -10.401000 24.328600 0.000019 0.000005 10.131700 28.082800 -20.788100 22.291600 -0.000001 0.000005 11.371800 5.138350 4.220400 12.994500 -0.242716 -4.980390 88.529200 8.957340 -80.635700 -5.348130 -0.000001 -0.000004 -55.917000 27.690500 -24.001200 -24.328900 0.000322 -0.000009 3.097380 4.495490 -34.632300 -22.291500 -0.000108 -0.000004 18.608300 5.428390 -3.883820 -2.192480 -6.469440 -0.000000 178.357000 -10.217900 -21.571000 39.081100 -0.000007 -0.000012 -0.209316 0.209711 44.946500 40.985400 -0.000006 -0.000013 2.371790 -0.212888 -67.900600 11.754300 -0.000000 0.000003 -0.000213 -0.001956 -16.651200 -2.192510 6.469440 -0.000001 172.905000 7.581800 167.337000 -39.081100 -0.002282 -0.040193 0.123335 -0.049741 67.518100 -40.985400 0.000008 0.000006 9.126890 -4.661370 -56.240700 -11.754300 -0.000006 -0.000006 -0.022636 -0.181473 -23.992700
0.000000 0.000000 0.000000 0.000000 0.000000 -0.000000 1.499750 87.625200 -52.787700 91.040300 -5.732930 6.406110 15.735700 0.000005 -0.000001 91.574600 78.461600 -92.847300 8.984550 -0.406207 -0.000000 15.309900 0.541954 -2.620290 16.377300 -0.000001 -0.000001 7.491490 -2.624230 0.749417 6.456720 -0.000001 -0.000000 -4.106540 -2.681840 0.051441 12.994200 -0.242716 4.980390 -91.324900 4.453550 -73.414000 5.348090 -0.000007 -0.000001 -68.306600 21.822500 -11.726800 24.328600 0.000019 0.000005 10.678300 26.081200 -23.215300 22.291600 -0.000001 0.000005 11.572700 5.162810 3.634900 12.994500 -0.242716 -4.980390 88.472200 9.126450 -80.454900 -5.348130 -0.000001 -0.000004 -56.490800 28.956600 -23.165000 -24.328900 0.000322 -0.000009 3.462740 5.426570 -32.623900 -22.291500 -0.000108 -0.000004 17.887800 5.424900 -3.765210 -2.192480 -6.469440 -0.000000 178.546000 -10.186900 -19.440100 39.081100 -0.000007 -0.000012 -0.231722 0.229875 45.229900 40.985400 -0.000006 -0.000013 2.724340 0.314059 -70.054500 11.754300 -0.000000 0.000003 -0.000248 -0.002217 -16.660700 -2.192510 6.469440 -0.000001 173.398000 8.606680 164.349000 -39.081100 -0.002282 -0.040193 0.133152 -0.042221 72.016300 -40.985400 0.000008 0.000006 8.846980 -6.762660 -57.195800 -11.754300 -0.000006 -0.000006 -0.015104 -0.138474 -22.223000
